<svg width="22" height="20" viewBox="0 0 22 20" fill="none" xmlns="http://www.w3.org/2000/svg">
<path fill-rule="evenodd" clip-rule="evenodd" d="M2.8065 3.20635C3.70663 2.30649 4.92731 1.80097 6.2001 1.80097C7.47289 1.80097 8.69356 2.30649 9.5937 3.20635L11.0001 4.61155L12.4065 3.20635C12.8493 2.7479 13.3789 2.38223 13.9646 2.13066C14.5502 1.8791 15.18 1.74669 15.8174 1.74115C16.4547 1.73561 17.0868 1.85706 17.6767 2.09841C18.2666 2.33975 18.8025 2.69617 19.2532 3.14685C19.7039 3.59754 20.0603 4.13347 20.3016 4.72337C20.543 5.31327 20.6644 5.94533 20.6589 6.58268C20.6534 7.22002 20.5209 7.84987 20.2694 8.43549C20.0178 9.02111 19.6521 9.55077 19.1937 9.99355L11.0001 18.1883L2.8065 9.99355C1.90664 9.09342 1.40112 7.87274 1.40112 6.59995C1.40112 5.32716 1.90664 4.10648 2.8065 3.20635Z" fill="#222222" stroke="#222222" stroke-width="2" stroke-linejoin="round"/>
</svg>
