<svg width="64" height="24" viewBox="0 0 64 24" fill="none" xmlns="http://www.w3.org/2000/svg">
<g clip-path="url(#clip0_134_1922)">
<mask id="mask0_134_1922" style="mask-type:luminance" maskUnits="userSpaceOnUse" x="0" y="0" width="64" height="24">
<path d="M64 0H0V24H64V0Z" fill="white"/>
</mask>
<g mask="url(#mask0_134_1922)">
<mask id="mask1_134_1922" style="mask-type:luminance" maskUnits="userSpaceOnUse" x="0" y="0" width="64" height="24">
<path d="M64 0H0V23.1579H64V0Z" fill="white"/>
</mask>
<g mask="url(#mask1_134_1922)">
<mask id="mask2_134_1922" style="mask-type:luminance" maskUnits="userSpaceOnUse" x="0" y="0" width="64" height="24">
<path d="M64 0H0V23.1579H64V0Z" fill="white"/>
</mask>
<g mask="url(#mask2_134_1922)">
<path d="M11.0017 5.58951L7.63358 5.54541L3.87378 10.8107L7.24191 10.8548L11.0017 5.58951Z" fill="#020715"/>
<path d="M1.75049 16.8984C1.75049 15.8468 2.00088 14.9036 2.50165 14.069C3.00242 13.2177 3.69515 12.55 4.57985 12.066C5.46455 11.5819 6.47444 11.3398 7.60952 11.3398C8.76133 11.3398 9.76284 11.5819 10.6141 12.066C11.4822 12.55 12.1499 13.2177 12.6172 14.069C13.1013 14.9036 13.3434 15.8468 13.3434 16.8984C13.3434 17.95 13.1013 18.9015 12.6172 19.7528C12.1332 20.5874 11.4572 21.2551 10.5891 21.7559C9.73783 22.24 8.72789 22.482 7.55945 22.482C6.45775 22.482 5.46455 22.2566 4.57985 21.8059C3.71184 21.3553 3.01911 20.7126 2.50165 19.878C2.00088 19.0267 1.75049 18.0335 1.75049 16.8984ZM4.30443 16.9234C4.30443 17.5745 4.44631 18.167 4.73008 18.7012C5.01386 19.2187 5.39778 19.6359 5.88186 19.9531C6.38263 20.2536 6.93348 20.4038 7.5344 20.4038C8.48587 20.4038 9.26204 20.0699 9.86297 19.4022C10.4807 18.7345 10.7895 17.9083 10.7895 16.9234C10.7895 15.9386 10.4807 15.1123 9.86297 14.4446C9.26204 13.7602 8.48587 13.4181 7.5344 13.4181C6.91679 13.4181 6.36594 13.5766 5.88186 13.8938C5.39778 14.2109 5.01386 14.6366 4.73008 15.1707C4.44631 15.7049 4.30443 16.2891 4.30443 16.9234ZM18.6723 11.7655L18.8476 13.7185C19.1981 13.0007 19.7406 12.4332 20.4751 12.0159C21.2095 11.5819 22.0609 11.3649 23.029 11.3649C24.0139 11.3649 24.8234 11.657 25.4577 12.2412C26.092 12.8088 26.4176 13.56 26.4343 14.4947V22.2316H23.9053V15.3711C23.8887 14.8369 23.7301 14.4029 23.4296 14.069C23.1292 13.7185 22.6618 13.5349 22.0274 13.5182C21.1427 13.5182 20.4 13.8854 19.7991 14.6199C19.2148 15.3543 18.9227 16.2975 18.9227 17.4492V22.2316H16.3937V11.7655H18.6723ZM38.0385 22.482C37.0536 22.482 36.1606 22.2734 35.3593 21.8561C34.5581 21.4387 33.9238 20.8294 33.4564 20.0283C32.989 19.2103 32.7553 18.2004 32.7553 16.9985C32.7553 15.8301 32.9974 14.8285 33.4814 13.9939C33.9822 13.1426 34.6332 12.4916 35.4344 12.0409C36.2524 11.5735 37.1371 11.3398 38.0886 11.3398C39.0567 11.3398 39.8579 11.5402 40.4923 11.9408C41.1265 12.3247 41.6273 12.7921 41.9946 13.343L42.1698 11.7655H44.4984V22.2316H41.9695V20.5791C41.7859 20.8128 41.5105 21.0799 41.1432 21.3803C40.776 21.6808 40.3337 21.9395 39.8162 22.1565C39.2988 22.3735 38.7062 22.482 38.0385 22.482ZM38.7145 20.4038C39.5491 20.4038 40.2502 20.1868 40.8177 19.7528C41.402 19.3021 41.7859 18.6929 41.9695 17.925V15.7717C41.7692 15.0873 41.3602 14.5197 40.7426 14.069C40.1417 13.6183 39.4407 13.393 38.6394 13.393C38.0385 13.393 37.4876 13.5432 36.9868 13.8437C36.486 14.1275 36.0855 14.5365 35.785 15.0706C35.4845 15.5881 35.3343 16.189 35.3343 16.8734C35.3343 17.5411 35.4845 18.142 35.785 18.6762C36.1021 19.2103 36.5195 19.6359 37.0369 19.9531C37.5544 20.2536 38.1136 20.4038 38.7145 20.4038ZM57.2076 11.7655L57.408 14.2443C57.7084 13.6434 58.109 13.1259 58.6098 12.6919C59.1106 12.2579 59.628 11.9241 60.1623 11.6904C60.7131 11.4567 61.1804 11.3398 61.5644 11.3398L61.4392 13.8437C60.6546 13.7937 59.9619 13.9439 59.361 14.2944C58.7767 14.6449 58.3177 15.1123 57.9839 15.6966C57.65 16.2808 57.4831 16.9067 57.4831 17.5745V22.2316H54.9542V11.7655H57.2076Z" fill="#020715"/>
<path d="M50.8631 0.589355H47.9158V11.5367H50.8631V0.589355Z" fill="#020715"/>
<path d="M49.3895 15.4103C50.2033 15.4103 50.8631 14.7505 50.8631 13.9366C50.8631 13.1227 50.2033 12.4629 49.3895 12.4629C48.5756 12.4629 47.9158 13.1227 47.9158 13.9366C47.9158 14.7505 48.5756 15.4103 49.3895 15.4103Z" fill="#E22C2F"/>
<path d="M50.8631 16.3369H47.9158V22.2316H50.8631V16.3369Z" fill="#020715"/>
</g>
</g>
</g>
</g>
<defs>
<clipPath id="clip0_134_1922">
<rect width="64" height="24" fill="white"/>
</clipPath>
</defs>
</svg>
